<svg width="1440" height="290" viewBox="0 0 1440 290" fill="none" xmlns="http://www.w3.org/2000/svg">
<rect width="1440" height="290" fill="#1F428E"/>
<mask id="mask0" mask-type="alpha" maskUnits="userSpaceOnUse" x="0" y="0" width="1440" height="290">
<rect width="1440" height="290" fill="#1F428E"/>
</mask>
<g mask="url(#mask0)">
<path opacity="0.07" d="M768.336 -695L-407 214.878M1820 119.122L644.664 1029L1820 119.122ZM1809.64 111.067L634.304 1020.95L1809.64 111.067ZM1799.15 103.013L623.817 1012.89L1799.15 103.013ZM1788.79 94.9589L613.458 1004.84L1788.79 94.9589ZM1778.31 86.9046L602.971 996.783L1778.31 86.9046ZM1767.95 78.8503L592.611 988.729L1767.95 78.8503ZM1757.59 70.7961L582.252 980.674L1757.59 70.7961ZM1747.1 62.7418L571.765 972.62L1747.1 62.7418ZM1736.74 54.6875L561.406 964.566L1736.74 54.6875ZM1726.25 46.6332L550.918 956.511L1726.25 46.6332ZM1715.9 38.5789L540.559 948.457L1715.9 38.5789ZM1705.41 30.5246L530.072 940.403L1705.41 30.5246ZM1695.05 22.4704L519.712 932.221L1695.05 22.4704ZM1684.69 14.4161L509.353 924.294L1684.69 14.4161ZM1674.2 6.36177L498.866 916.24L1674.2 6.36177ZM1663.84 -1.82032L488.507 908.058L1663.84 -1.82032ZM1653.36 -9.87458L478.019 900.004L1653.36 -9.87458ZM1643 -17.9289L467.66 891.949L1643 -17.9289ZM1632.64 -25.9832L457.301 883.895L1632.64 -25.9832ZM1622.15 -34.0375L446.813 875.841L1622.15 -34.0375ZM1611.79 -42.0917L436.454 867.787L1611.79 -42.0917ZM1601.3 -50.146L425.967 859.732L1601.3 -50.146ZM1590.94 -58.2003L415.608 851.678L1590.94 -58.2003ZM1580.46 -66.2546L405.12 843.624L1580.46 -66.2546ZM1570.1 -74.3089L394.761 835.569L1570.1 -74.3089ZM1559.74 -82.3631L384.274 827.515L1559.74 -82.3631ZM1549.25 -90.4174L373.914 819.461L1549.25 -90.4174ZM1538.89 -98.4718L363.555 811.407L1538.89 -98.4718ZM1528.4 -106.526L353.068 803.352L1528.4 -106.526ZM1518.04 -114.58L342.709 795.298L1518.04 -114.58ZM1507.56 -122.635L332.221 787.244L1507.56 -122.635ZM1497.2 -130.689L321.862 779.189L1497.2 -130.689ZM1486.84 -138.743L311.503 771.135L1486.84 -138.743ZM1476.35 -146.797L301.015 762.953L1476.35 -146.797ZM1465.99 -154.852L290.656 755.026L1465.99 -154.852ZM1455.51 -163.034L280.169 746.844L1455.51 -163.034ZM1445.15 -171.088L269.81 738.79L1445.15 -171.088ZM1434.79 -179.142L259.45 730.736L1434.79 -179.142ZM1424.3 -187.197L248.963 722.682L1424.3 -187.197ZM1413.94 -195.251L238.604 714.627L1413.94 -195.251ZM1403.45 -203.305L228.116 706.573L1403.45 -203.305ZM1393.09 -211.36L217.757 698.519L1393.09 -211.36ZM1382.61 -219.414L207.27 690.464L1382.61 -219.414ZM1372.25 -227.468L196.911 682.41L1372.25 -227.468ZM1361.89 -235.522L186.551 674.356L1361.89 -235.522ZM1351.4 -243.577L176.064 666.302L1351.4 -243.577ZM1341.04 -251.631L165.705 658.247L1341.04 -251.631ZM1330.55 -259.685L155.217 650.193L1330.55 -259.685ZM1320.19 -267.74L144.858 642.139L1320.19 -267.74ZM1309.84 -275.794L134.499 634.084L1309.84 -275.794ZM1299.35 -283.848L124.012 626.03L1299.35 -283.848ZM1288.99 -291.902L113.652 617.848L1288.99 -291.902ZM1278.5 -299.957L103.165 609.922L1278.5 -299.957ZM1268.14 -308.011L92.8057 601.867L1268.14 -308.011ZM1257.65 -316.193L82.3185 593.685L1257.65 -316.193ZM1247.3 -324.247L71.9591 585.631L1247.3 -324.247ZM1236.94 -332.302L61.5998 577.577L1236.94 -332.302ZM1226.45 -340.356L51.1126 569.522L1226.45 -340.356ZM1216.09 -348.41L40.7533 561.468L1216.09 -348.41ZM1205.6 -356.464L30.2661 553.414L1205.6 -356.464ZM1195.24 -364.519L19.9067 545.359L1195.24 -364.519ZM1184.76 -372.573L9.41948 537.305L1184.76 -372.573ZM1174.4 -380.627L-0.939855 529.251L1174.4 -380.627ZM1164.04 -388.682L-11.2992 521.197L1164.04 -388.682ZM1153.55 -396.736L-21.7864 513.142L1153.55 -396.736ZM1143.19 -404.79L-32.1457 505.088L1143.19 -404.79ZM1132.7 -412.844L-42.6329 497.034L1132.7 -412.844ZM1122.34 -420.899L-52.9923 488.979L1122.34 -420.899ZM1111.98 -428.953L-63.3516 480.925L1111.98 -428.953ZM1101.5 -437.007L-73.8388 472.871L1101.5 -437.007ZM1091.14 -445.062L-84.1982 464.817L1091.14 -445.062ZM1080.65 -453.116L-94.6854 456.762L1080.65 -453.116ZM1070.29 -461.17L-105.045 448.708L1070.29 -461.17ZM1059.8 -469.224L-115.532 440.654L1059.8 -469.224ZM1049.45 -477.407L-125.891 432.472L1049.45 -477.407ZM1039.09 -485.461L-136.251 424.417L1039.09 -485.461ZM1028.6 -493.515L-146.738 416.363L1028.6 -493.515ZM1018.24 -501.569L-157.097 408.309L1018.24 -501.569ZM1007.75 -509.624L-167.584 400.254L1007.75 -509.624ZM997.393 -517.678L-177.944 392.2L997.393 -517.678ZM986.905 -525.732L-188.431 384.146L986.905 -525.732ZM976.546 -533.787L-198.79 376.092L976.546 -533.787ZM966.187 -541.841L-209.15 368.037L966.187 -541.841ZM955.699 -549.895L-219.637 359.983L955.699 -549.895ZM945.34 -557.949L-229.996 351.929L945.34 -557.949ZM934.853 -566.004L-240.483 343.875L934.853 -566.004ZM924.494 -574.058L-250.843 335.82L924.494 -574.058ZM914.134 -582.112L-261.202 327.766L914.134 -582.112ZM903.647 -590.166L-271.689 319.712L903.647 -590.166ZM893.288 -598.221L-282.049 311.657L893.288 -598.221ZM882.8 -606.275L-292.536 303.603L882.8 -606.275ZM872.441 -614.329L-302.895 295.549L872.441 -614.329ZM861.954 -622.384L-313.382 287.495L861.954 -622.384ZM851.595 -630.438L-323.742 279.44L851.595 -630.438ZM841.235 -638.62L-334.101 271.258L841.235 -638.62ZM830.748 -646.674L-344.588 263.204L830.748 -646.674ZM820.389 -654.729L-354.948 255.15L820.389 -654.729ZM809.902 -662.783L-365.435 247.095L809.902 -662.783ZM799.542 -670.837L-375.794 239.041L799.542 -670.837ZM789.183 -678.891L-386.153 230.987L789.183 -678.891ZM778.696 -686.946L-396.641 222.933L778.696 -686.946Z" stroke="white" stroke-width="0.5" stroke-miterlimit="10"/>
<g opacity="0.2">
<path d="M1290.1 201.101C1285.7 205.501 1278.6 205.501 1274.2 201.101C1269.8 196.701 1269.8 189.601 1274.2 185.201C1278.6 180.801 1285.7 180.801 1290.1 185.201C1294.5 189.501 1294.5 196.701 1290.1 201.101Z" fill="white"/>
<path d="M1417.8 141.201C1417.8 147.401 1412.8 152.401 1406.6 152.401C1400.4 152.401 1395.4 147.401 1395.4 141.201C1395.4 135.001 1400.4 130.001 1406.6 130.001C1412.7 129.901 1417.8 135.001 1417.8 141.201Z" fill="#0082C4"/>
<path d="M1345.4 164.501C1339.6 166.801 1333.1 164.001 1330.8 158.301C1328.5 152.501 1331.3 146.001 1337 143.701C1342.8 141.401 1349.3 144.201 1351.6 149.901C1354 155.601 1351.2 162.101 1345.4 164.501Z" fill="#11A0DC"/>
<path d="M1246.7 243.002C1252.5 245.302 1255.3 251.902 1253 257.602C1250.7 263.402 1244.1 266.202 1238.4 263.902C1232.6 261.602 1229.8 255.002 1232.1 249.302C1234.4 243.502 1241 240.702 1246.7 243.002Z" fill="#0082C4"/>
</g>
<g opacity="0.2">
<path d="M174.9 211.301C169.1 213.601 162.6 210.801 160.3 205.101C158 199.301 160.8 192.801 166.5 190.501C172.3 188.201 178.8 191.001 181.1 196.701C183.4 202.401 180.6 209.001 174.9 211.301Z" stroke="white" stroke-width="2" stroke-miterlimit="10"/>
<path d="M114.8 213.701C114.8 219.901 109.8 224.901 103.6 224.901C97.3999 224.901 92.3999 219.901 92.3999 213.701C92.3999 207.501 97.3999 202.501 103.6 202.501C109.7 202.401 114.8 207.501 114.8 213.701Z" fill="#0082C4"/>
<path d="M292.9 36.4014C292.9 42.6014 287.9 47.6014 281.7 47.6014C275.5 47.6014 270.5 42.6014 270.5 36.4014C270.5 30.2014 275.5 25.2014 281.7 25.2014C287.9 25.2014 292.9 30.2014 292.9 36.4014Z" fill="#0082C4"/>
<path d="M237.7 169.701C233.3 174.101 226.2 174.101 221.8 169.701C217.4 165.301 217.4 158.201 221.8 153.801C226.2 149.401 233.3 149.401 237.7 153.801C242.1 158.201 242.1 165.301 237.7 169.701Z" fill="#0082C4"/>
<path d="M272.8 92.7016C278.6 95.0016 281.4 101.602 279.1 107.302C276.8 113.102 270.2 115.902 264.5 113.602C258.7 111.302 255.9 104.702 258.2 99.0016C260.5 93.2016 267.1 90.4016 272.8 92.7016Z" fill="#0082C4"/>
<path d="M42.8003 190.601C48.6003 192.901 51.4003 199.501 49.1003 205.201C46.8004 211.001 40.2003 213.802 34.5003 211.502C28.7003 209.202 25.9004 202.602 28.2004 196.902C30.5004 191.002 37.0003 188.201 42.8003 190.601Z" fill="#0082C4"/>
</g>
</g>
</svg>
