<svg width="124" height="124" viewBox="0 0 124 124" fill="none" xmlns="http://www.w3.org/2000/svg">
<g id="Group 26">
<g id="Group 19">
<circle id="Ellipse 11" cx="62" cy="62" r="62" fill="#1D3E90"/>
<circle id="Ellipse 12" cx="62" cy="62" r="46" fill="#30529A"/>
<g id="airplane 1">
<g id="Vector">
<mask id="path-3-outside-1" maskUnits="userSpaceOnUse" x="35" y="42.4131" width="54" height="39" fill="black">
<rect fill="white" x="35" y="42.4131" width="54" height="39"/>
<path d="M42.1989 65.5631C41.7512 65.7731 41.5537 66.3019 41.7532 66.7538L43.798 71.1433C43.8984 71.3619 44.0817 71.532 44.3071 71.616C44.4059 71.6518 44.5106 71.6703 44.6159 71.6703C44.7476 71.6715 44.8777 71.6433 44.9975 71.589L60.4466 64.3729L59.0473 79.0039C59.0203 79.2919 59.1313 79.5751 59.3467 79.7674C60.024 80.3281 60.8681 80.6474 61.7464 80.6761C61.9885 80.6758 62.2293 80.6454 62.4641 80.5856C63.7183 80.2584 64.6907 79.1408 65.3541 77.232L71.4337 59.2296L83.4746 53.613C87.0189 51.9592 88.8454 48.6059 87.6188 45.9886C86.9227 44.6205 85.5894 43.6899 84.0654 43.5075C82.3721 43.252 80.6416 43.5183 79.1036 44.2714L65.2084 50.787L50.2686 44.9436C48.3872 44.2349 46.8971 44.2531 45.8521 45.0076C44.9753 45.727 44.4764 46.8085 44.4978 47.9425C44.5069 48.2303 44.6517 48.4963 44.8885 48.6608L54.9484 55.5763L49.1872 58.3027L39.5266 55.8487C39.1307 55.7513 38.7187 55.9298 38.518 56.285L36.1101 60.6195C35.9852 60.8492 35.9656 61.1218 36.0563 61.3671C36.1466 61.6127 36.3384 61.8071 36.5828 61.901L43.7348 64.8547L42.1989 65.5631ZM46.3604 47.4883C46.4139 47.1041 46.6083 46.7544 46.906 46.5068C47.4242 46.134 48.3693 46.1886 49.6323 46.661L62.9368 51.8502L56.866 54.6856L46.3604 47.4883ZM38.1819 60.6107L39.7631 57.8027L49.0597 60.1107C49.2601 60.1613 49.4715 60.1423 49.6599 60.0566L79.8763 45.9433C81.0775 45.3508 82.4305 45.1351 83.7566 45.3252C84.6867 45.4108 85.5151 45.9476 85.9742 46.7609C86.7369 48.397 85.2376 50.787 82.702 51.9683L72.2331 56.876L72.8695 54.9943C73.0303 54.5103 72.7676 53.9872 72.2835 53.8267C71.7988 53.6662 71.2761 53.9288 71.1155 54.4129L63.6363 76.6683C63.1909 77.9319 62.6365 78.6863 62.0187 78.8494C61.6359 78.9231 61.2398 78.8479 60.91 78.6408L62.7276 59.5563C62.7751 59.0546 62.4072 58.6092 61.9049 58.5617C61.4031 58.5136 60.9578 58.8821 60.91 59.3838L60.6285 62.3009L45.0337 69.5709L43.753 66.8446L46.3152 65.6453C46.645 65.4999 46.8576 65.1738 46.8576 64.8138C46.8576 64.4535 46.645 64.1273 46.3152 63.9822L38.1819 60.6107Z"/>
</mask>
<path d="M42.1989 65.5631C41.7512 65.7731 41.5537 66.3019 41.7532 66.7538L43.798 71.1433C43.8984 71.3619 44.0817 71.532 44.3071 71.616C44.4059 71.6518 44.5106 71.6703 44.6159 71.6703C44.7476 71.6715 44.8777 71.6433 44.9975 71.589L60.4466 64.3729L59.0473 79.0039C59.0203 79.2919 59.1313 79.5751 59.3467 79.7674C60.024 80.3281 60.8681 80.6474 61.7464 80.6761C61.9885 80.6758 62.2293 80.6454 62.4641 80.5856C63.7183 80.2584 64.6907 79.1408 65.3541 77.232L71.4337 59.2296L83.4746 53.613C87.0189 51.9592 88.8454 48.6059 87.6188 45.9886C86.9227 44.6205 85.5894 43.6899 84.0654 43.5075C82.3721 43.252 80.6416 43.5183 79.1036 44.2714L65.2084 50.787L50.2686 44.9436C48.3872 44.2349 46.8971 44.2531 45.8521 45.0076C44.9753 45.727 44.4764 46.8085 44.4978 47.9425C44.5069 48.2303 44.6517 48.4963 44.8885 48.6608L54.9484 55.5763L49.1872 58.3027L39.5266 55.8487C39.1307 55.7513 38.7187 55.9298 38.518 56.285L36.1101 60.6195C35.9852 60.8492 35.9656 61.1218 36.0563 61.3671C36.1466 61.6127 36.3384 61.8071 36.5828 61.901L43.7348 64.8547L42.1989 65.5631ZM46.3604 47.4883C46.4139 47.1041 46.6083 46.7544 46.906 46.5068C47.4242 46.134 48.3693 46.1886 49.6323 46.661L62.9368 51.8502L56.866 54.6856L46.3604 47.4883ZM38.1819 60.6107L39.7631 57.8027L49.0597 60.1107C49.2601 60.1613 49.4715 60.1423 49.6599 60.0566L79.8763 45.9433C81.0775 45.3508 82.4305 45.1351 83.7566 45.3252C84.6867 45.4108 85.5151 45.9476 85.9742 46.7609C86.7369 48.397 85.2376 50.787 82.702 51.9683L72.2331 56.876L72.8695 54.9943C73.0303 54.5103 72.7676 53.9872 72.2835 53.8267C71.7988 53.6662 71.2761 53.9288 71.1155 54.4129L63.6363 76.6683C63.1909 77.9319 62.6365 78.6863 62.0187 78.8494C61.6359 78.9231 61.2398 78.8479 60.91 78.6408L62.7276 59.5563C62.7751 59.0546 62.4072 58.6092 61.9049 58.5617C61.4031 58.5136 60.9578 58.8821 60.91 59.3838L60.6285 62.3009L45.0337 69.5709L43.753 66.8446L46.3152 65.6453C46.645 65.4999 46.8576 65.1738 46.8576 64.8138C46.8576 64.4535 46.645 64.1273 46.3152 63.9822L38.1819 60.6107Z" fill="white"/>
<path d="M42.1989 65.5631C41.7512 65.7731 41.5537 66.3019 41.7532 66.7538L43.798 71.1433C43.8984 71.3619 44.0817 71.532 44.3071 71.616C44.4059 71.6518 44.5106 71.6703 44.6159 71.6703C44.7476 71.6715 44.8777 71.6433 44.9975 71.589L60.4466 64.3729L59.0473 79.0039C59.0203 79.2919 59.1313 79.5751 59.3467 79.7674C60.024 80.3281 60.8681 80.6474 61.7464 80.6761C61.9885 80.6758 62.2293 80.6454 62.4641 80.5856C63.7183 80.2584 64.6907 79.1408 65.3541 77.232L71.4337 59.2296L83.4746 53.613C87.0189 51.9592 88.8454 48.6059 87.6188 45.9886C86.9227 44.6205 85.5894 43.6899 84.0654 43.5075C82.3721 43.252 80.6416 43.5183 79.1036 44.2714L65.2084 50.787L50.2686 44.9436C48.3872 44.2349 46.8971 44.2531 45.8521 45.0076C44.9753 45.727 44.4764 46.8085 44.4978 47.9425C44.5069 48.2303 44.6517 48.4963 44.8885 48.6608L54.9484 55.5763L49.1872 58.3027L39.5266 55.8487C39.1307 55.7513 38.7187 55.9298 38.518 56.285L36.1101 60.6195C35.9852 60.8492 35.9656 61.1218 36.0563 61.3671C36.1466 61.6127 36.3384 61.8071 36.5828 61.901L43.7348 64.8547L42.1989 65.5631ZM46.3604 47.4883C46.4139 47.1041 46.6083 46.7544 46.906 46.5068C47.4242 46.134 48.3693 46.1886 49.6323 46.661L62.9368 51.8502L56.866 54.6856L46.3604 47.4883ZM38.1819 60.6107L39.7631 57.8027L49.0597 60.1107C49.2601 60.1613 49.4715 60.1423 49.6599 60.0566L79.8763 45.9433C81.0775 45.3508 82.4305 45.1351 83.7566 45.3252C84.6867 45.4108 85.5151 45.9476 85.9742 46.7609C86.7369 48.397 85.2376 50.787 82.702 51.9683L72.2331 56.876L72.8695 54.9943C73.0303 54.5103 72.7676 53.9872 72.2835 53.8267C71.7988 53.6662 71.2761 53.9288 71.1155 54.4129L63.6363 76.6683C63.1909 77.9319 62.6365 78.6863 62.0187 78.8494C61.6359 78.9231 61.2398 78.8479 60.91 78.6408L62.7276 59.5563C62.7751 59.0546 62.4072 58.6092 61.9049 58.5617C61.4031 58.5136 60.9578 58.8821 60.91 59.3838L60.6285 62.3009L45.0337 69.5709L43.753 66.8446L46.3152 65.6453C46.645 65.4999 46.8576 65.1738 46.8576 64.8138C46.8576 64.4535 46.645 64.1273 46.3152 63.9822L38.1819 60.6107Z" stroke="white" stroke-width="0.8" mask="url(#path-3-outside-1)"/>
</g>
</g>
</g>
</g>
</svg>
