<svg width="200" height="200" viewBox="0 0 200 200" fill="none" xmlns="http://www.w3.org/2000/svg">
<path d="M200 169.802V200H0V169.802C0 161.814 4.875 154.615 12.2875 151.734L54.4582 135.087L87.375 171.396L97.7043 150.274V150.232L100 145.502L102.338 150.232L112.671 171.396L145.541 135.087L187.754 151.734C195.125 154.662 200 161.814 200 169.802Z" fill="#F2F2F2"/>
<path d="M129.5 128.814H129.542V111.623C127.354 114.953 124.813 118.332 121.859 121.712L117.775 126.229C114.025 130.324 108.692 132.712 103.15 132.712H96.9005C91.3587 132.712 86.0212 130.328 82.2755 126.229L78.1923 121.712C75.2048 118.303 72.6341 114.878 70.438 111.515V128.785L70.5048 128.818L96.213 143.373L100.005 145.506L103.797 143.373L129.5 128.814Z" fill="#F8B64C"/>
<g opacity="0.1">
<g opacity="0.1">
<path opacity="0.1" d="M89.4623 131.181C89.4373 131.173 89.4123 131.164 89.3873 131.156C89.3455 131.139 89.2998 131.126 89.258 131.114C89.2162 131.093 89.1705 131.089 89.1123 131.068L104.825 142.783L129.5 128.813H129.525L129.542 111.711C129.5 111.774 123.683 119.423 121.858 121.703L117.775 126.225C114.025 130.319 108.692 132.707 103.15 132.707H96.9002C95.6377 132.707 94.4002 132.569 93.1877 132.31C91.9041 132.063 90.6666 131.678 89.4623 131.181Z" fill="#40596B"/>
</g>
</g>
<path d="M70.7585 76.5946C71.4085 84.1023 67.7792 90.5557 62.6542 90.9992C57.521 91.4509 52.8335 85.7249 52.171 78.2175C51.521 70.7098 55.1503 64.2646 60.2835 63.8129C65.4128 63.3612 70.1085 69.0829 70.7585 76.5946Z" fill="#F8B64C"/>
<path d="M147.868 78.2258C147.218 85.7335 142.522 91.4552 137.393 91.0035C132.259 90.5518 128.626 84.1067 129.288 76.5989C129.938 69.0911 134.634 63.3655 139.763 63.8172C144.897 64.2603 148.526 70.7141 147.868 78.2258Z" fill="#F8B64C"/>
<path d="M142.52 76.6197C141.733 85.0266 137.766 103.551 121.858 121.703L117.774 126.22C114.024 130.319 108.691 132.707 103.149 132.707H96.8994C91.3576 132.707 86.0201 130.323 82.2744 126.22L78.1912 121.703C62.2744 103.551 58.358 85.0222 57.5205 76.6197C56.3955 65.034 56.8537 50.3117 57.5205 46.5055C61.3123 24.2128 80.3162 10.3685 100.025 10.3685C119.729 10.3685 138.729 24.2128 142.52 46.5055C143.187 50.3117 143.645 65.0383 142.52 76.6197Z" fill="#FFD15C"/>
<path d="M67.5371 20.9378C67.5371 20.9378 67.8289 -7.22324 108.616 1.77337C108.616 1.77337 128.854 8.15577 141.875 27.036C141.875 27.036 154.091 44.8453 147.45 59.8271C145.291 64.6912 142.975 70.2584 143.241 74.7293C143.241 74.7293 140.979 65.239 139.629 57.3301C138.5 50.705 135.658 44.4983 131.296 39.4039L131.166 39.2491C124.104 31.0386 113.05 27.1991 102.596 29.9054C97.6082 31.1978 91.9332 33.7199 85.6914 38.1912C85.6914 38.1912 68.6996 26.7434 60.2996 46.7819C60.2996 46.7819 56.5578 61.4293 57.0871 72.9981C57.0871 72.9934 33.6996 23.8406 67.5371 20.9378Z" fill="#40596B"/>
<path d="M155.704 146.798C155.621 146.087 155.459 139.566 154.125 136.932C151.871 132.494 147.833 129.528 142.958 128.776L129.542 126.057V128.818H129.5L127.579 129.905L142.292 132.916C145.833 133.46 148.796 135.593 150.375 138.809C151.417 140.859 151.842 143.08 151.504 145.254L151.417 146.342C133.792 161.692 128.792 175.536 128.583 176.163C127.258 180.136 127.338 183.273 128.796 185.532C130.425 188.083 133.083 188.376 133.417 188.418L133.833 184.235C133.792 184.235 132.792 184.064 132.254 183.189C131.587 182.098 131.667 180.094 132.546 177.539C132.588 177.451 135.046 170.642 142.546 161.432C144.629 160.386 146.958 160.181 149.213 160.846C151.379 161.516 153.208 162.984 154.338 164.941C155.167 177.033 153.338 184.143 153.296 184.185C152.5 186.778 151.417 188.493 150.213 188.953C149.254 189.375 148.375 188.911 148.375 188.869L147.333 190.706L146.25 192.517C146.421 192.642 147.708 193.353 149.417 193.353C150.125 193.353 150.884 193.228 151.671 192.893C154.171 191.935 156.092 189.422 157.334 185.407C157.504 184.78 161.375 170.179 155.704 146.798ZM150.171 157.631C148.917 157.255 147.583 157.092 146.329 157.133C148.129 155.164 150.121 153.16 152.375 151.115C153 154.039 153.458 156.841 153.792 159.48C152.708 158.677 151.496 158.053 150.171 157.631Z" fill="#ACB3BA"/>
<path d="M137.084 187.063C136.751 188.745 135.121 189.841 133.446 189.51C131.78 189.18 132.967 183.086 134.642 183.416C136.317 183.747 137.413 185.382 137.084 187.063Z" fill="#F8B64C"/>
<path d="M143.838 189.155C143.13 190.715 143.805 192.556 145.358 193.271C146.913 193.986 149.492 188.344 147.938 187.624C146.396 186.909 144.555 187.595 143.838 189.155Z" fill="#F8B64C"/>
<path d="M70.5003 128.814L70.4335 128.78V126.053L61.4253 127.915C51.8128 129.901 43.7253 136.058 39.2171 144.799C34.7171 153.549 34.3921 163.738 38.3378 172.755L42.1546 171.074C38.7214 163.219 38.9878 154.348 42.9214 146.723C46.8421 139.111 53.8921 133.745 62.2589 132.018L72.4382 129.914L70.5003 128.814Z" fill="#ACB3BA"/>
<path d="M145.542 135.087L114.796 175.574L100 145.502L103.792 143.369L129.5 128.814H129.542L129.583 128.772L145.542 135.087Z" fill="#CDD6E0"/>
<path d="M54.458 135.087L85.2541 175.574L99.9998 145.502L96.208 143.369L70.4998 128.814L70.4166 128.772L54.458 135.087Z" fill="#CDD6E0"/>
<path d="M85.2544 200L93.6669 180.761L90.0376 175.407L87.3794 171.392L97.7044 150.232L100 145.502L102.338 150.232V150.274L112.671 171.392L109.963 175.369L106.333 180.761L114.796 200H85.2544Z" fill="#334A5E"/>
<path d="M112.671 171.392L109.963 175.369L100.042 154.996L90.0376 175.407L87.3794 171.392L97.7044 150.232L100 145.502L102.338 150.232V150.274L112.671 171.392Z" fill="#2A4356"/>
<path d="M52.7754 179.305C52.7754 184.533 48.5422 188.779 43.3336 188.779C38.125 188.779 33.9004 184.533 33.9004 179.305C33.9004 174.077 38.1254 169.836 43.3336 169.836C48.5418 169.836 52.7754 174.077 52.7754 179.305Z" fill="#FF7058"/>
<path d="M49.6755 179.305C49.6755 182.818 46.8423 185.667 43.3423 185.667C39.8341 185.667 36.9966 182.814 36.9966 179.305C36.9966 175.796 39.8384 172.944 43.3423 172.944C46.8423 172.944 49.6755 175.792 49.6755 179.305Z" fill="#F2F2F2"/>
<path d="M47.7792 179.305C47.7792 181.773 45.7917 183.764 43.346 183.764C40.8878 183.764 38.896 181.769 38.896 179.305C38.896 176.846 40.8917 174.851 43.346 174.851C45.7917 174.851 47.7792 176.846 47.7792 179.305Z" fill="#ACB3BA"/>
</svg>
