<svg width="163" height="200" viewBox="0 0 163 200" fill="none" xmlns="http://www.w3.org/2000/svg">
<path d="M61.5948 123.567L40.3655 124.938C40.3655 124.938 2.69935 77.7886 31.3112 27.8128C52.402 -9.01466 90.5186 -0.985869 109.112 5.78211C109.112 5.78211 129.849 3.83091 133.504 35.8122C137.159 67.7936 126.655 107.343 103.598 128.135L61.5948 123.567Z" fill="#414451"/>
<path d="M110.131 150.153L97.5124 174.211L73.1472 177.118L51.9977 168.27L49.2593 147.249L54.5927 131.884L56.1083 127.35C57.2549 126.093 58.0327 124.544 58.3547 122.872C58.6246 121.839 58.8198 120.789 58.9397 119.728C59.0493 118.87 59.1394 117.992 59.1834 117.077C59.428 112 59.2323 106.912 58.5985 101.869C58.5985 101.869 105.867 80.0794 103.725 101.869C101.584 123.658 105.806 126.036 105.806 126.036L110.131 150.153Z" fill="#F4BB87"/>
<path d="M51.8247 149.393C51.8247 149.393 75.8169 161.287 112.151 149.393V200H60.2793L51.8247 149.393Z" fill="#69B0EE"/>
<path d="M97.3584 33.1564C97.3584 33.1564 95.9891 38.9439 86.857 40.6221C82.612 41.5051 78.4484 42.7442 74.4113 44.327C63.9214 48.1555 55.4011 56.0313 50.7549 66.1941C47.1943 74.4448 45.8414 83.4819 46.8299 92.4149C46.8299 92.4149 62.5089 118.921 81.3797 118.767C100.25 118.614 116.222 93.3272 118.97 84.7982C118.97 84.7982 123.992 85.1785 126.504 77.6377C127.737 74.2412 128.343 70.649 128.295 67.0359C128.27 66.1072 127.933 65.2144 127.337 64.502C125.455 62.532 122.587 61.8624 120.028 62.7948C120.028 62.794 102.989 56.0064 97.3584 33.1564Z" fill="#FED19A"/>
<path d="M105.828 126.025L88.772 200H154.505C158.854 200 162.38 196.471 162.38 192.117V170.452C162.379 151.26 147.411 135.406 128.268 134.322L119.548 133.835C114.626 133.556 110.049 131.217 106.936 127.391L105.828 126.025Z" fill="#EEEFEE"/>
<path d="M56.9877 126.274L73.9997 200H8.25487C3.90588 200 0.379883 196.471 0.379883 192.117V170.452C0.38029 151.26 15.3484 135.406 34.4911 134.322L43.2115 133.835C48.1332 133.556 52.7101 131.217 55.8227 127.391L56.9877 126.274Z" fill="#EEEFEE"/>
<path d="M127.918 141.764C118.091 141.764 110.375 154.816 110.375 171.486C110.22 178.69 111.892 185.816 115.233 192.198C116.114 193.773 117.177 195.239 118.401 196.566C119.756 196.528 120.951 195.665 121.415 194.39C120.156 193.072 119.089 191.583 118.247 189.966C115.355 184.243 113.907 177.898 114.029 171.486C114.029 157.355 120.384 145.419 127.918 145.419C135.451 145.419 141.806 157.355 141.806 171.486C141.916 177.906 140.462 184.255 137.569 189.985C136.777 191.503 135.782 192.905 134.611 194.153C134.964 195.468 136.104 196.419 137.459 196.529C138.739 195.119 139.848 193.564 140.765 191.895C143.991 185.585 145.605 178.573 145.46 171.486C145.461 154.817 137.749 141.764 127.918 141.764Z" fill="#BBBBCD"/>
<path d="M141.055 193.259C141.05 195.084 139.573 196.563 137.749 196.568C137.65 196.574 137.551 196.562 137.457 196.532C136.101 196.421 134.961 195.471 134.609 194.156C134.504 193.87 134.454 193.566 134.462 193.261C134.454 191.514 135.823 190.07 137.566 189.988C137.626 189.973 137.688 189.967 137.749 189.97C139.567 189.962 141.047 191.431 141.055 193.251V193.26V193.259Z" fill="#575B6D"/>
<path d="M121.641 193.259C121.644 193.648 121.57 194.033 121.422 194.393C120.958 195.668 119.763 196.531 118.408 196.568H118.335C116.515 196.56 115.045 195.08 115.048 193.259C115.043 192.897 115.105 192.537 115.231 192.198C115.667 190.887 116.881 189.993 118.262 189.969H118.335C120.155 189.966 121.633 191.438 121.641 193.259Z" fill="#575B6D"/>
<path d="M127.917 145.427C127.102 145.425 126.386 144.883 126.163 144.097C124.815 140.056 122.265 136.523 118.853 133.973C118.027 133.395 117.826 132.256 118.404 131.429C118.982 130.601 120.12 130.4 120.946 130.978C125.054 134.001 128.108 138.242 129.671 143.1C129.944 144.074 129.377 145.085 128.404 145.358C128.244 145.403 128.079 145.426 127.912 145.426H127.917V145.427Z" fill="#BBBBCD"/>
<path d="M59.2077 117.077C59.1519 117.991 59.0614 118.869 58.964 119.728C58.8441 120.788 58.6489 121.839 58.379 122.872C55.2118 125.413 35.4222 142.669 36.5016 177.055C36.5358 178.069 35.743 178.919 34.73 178.955H34.6742C33.6873 178.953 32.8794 178.169 32.8468 177.182C31.9166 154.152 41.6414 131.978 59.2077 117.077Z" fill="#BBBBCD"/>
<path d="M34.3133 193.486C39.3582 193.486 43.4478 189.392 43.4478 184.342C43.4478 179.292 39.3582 175.199 34.3133 175.199C29.2684 175.199 25.1787 179.292 25.1787 184.342C25.1787 189.392 29.2684 193.486 34.3133 193.486Z" fill="#575B6D"/>
<path d="M34.3158 189.32C37.0624 189.32 39.2889 187.091 39.2889 184.342C39.2889 181.593 37.0624 179.364 34.3158 179.364C31.5693 179.364 29.3428 181.593 29.3428 184.342C29.3428 187.091 31.5693 189.32 34.3158 189.32Z" fill="#BBBBCD"/>
</svg>
