<svg width="32" height="32" viewBox="0 0 32 32" fill="none" xmlns="http://www.w3.org/2000/svg">
<circle cx="16" cy="16" r="16" fill="white"/>
<path d="M21.8333 18.87V20.62C21.834 20.7825 21.8007 20.9433 21.7356 21.0921C21.6705 21.241 21.5751 21.3746 21.4554 21.4844C21.3357 21.5943 21.1943 21.6779 21.0404 21.7299C20.8865 21.782 20.7235 21.8013 20.5617 21.7867C18.7667 21.5916 17.0424 20.9783 15.5275 19.9958C14.1181 19.1002 12.9231 17.9053 12.0275 16.4958C11.0417 14.9741 10.4281 13.2414 10.2367 11.4383C10.2221 11.277 10.2413 11.1145 10.293 10.961C10.3447 10.8075 10.4278 10.6664 10.5369 10.5468C10.6461 10.4272 10.7791 10.3316 10.9272 10.2662C11.0754 10.2007 11.2355 10.1668 11.3975 10.1667H13.1475C13.4306 10.1639 13.705 10.2641 13.9197 10.4487C14.1343 10.6333 14.2745 10.8897 14.3142 11.17C14.388 11.7301 14.525 12.2799 14.7225 12.8092C14.801 13.018 14.818 13.2449 14.7714 13.463C14.7249 13.6812 14.6168 13.8814 14.46 14.04L13.7192 14.7808C14.5496 16.2413 15.7588 17.4504 17.2192 18.2808L17.96 17.54C18.1186 17.3832 18.3188 17.2751 18.537 17.2286C18.7551 17.182 18.982 17.199 19.1908 17.2775C19.7201 17.475 20.27 17.612 20.83 17.6858C21.1134 17.7258 21.3722 17.8686 21.5571 18.0869C21.7421 18.3052 21.8404 18.5839 21.8333 18.87Z" fill="#1F428E"/>
</svg>
