<svg width="200" height="67" viewBox="0 0 200 67" fill="none" xmlns="http://www.w3.org/2000/svg">
<path d="M10.6694 37.9564H14.1923V49.6739H16.4066V56.1835H13.1857V52.7785H0V37.9564H3.62356V49.6739H10.6694V37.9564Z" fill="black"/>
<path d="M18.0171 37.9564H29.4917V40.8607H21.6406V43.5648H26.9753V46.5692H21.6406V49.6739H30.2969V52.7785H18.0171V37.9564Z" fill="black"/>
<path d="M32.4106 37.9564H36.0342V43.7651H43.2813V37.9564H46.9048V52.7785H43.2813V46.8697H36.0342V52.7785H32.4106V37.9564Z" fill="black"/>
<path d="M54.6552 41.061H49.0186V37.9564H63.8147V41.061H58.1781V52.7785H54.6552V41.061Z" fill="black"/>
<path d="M65.9285 37.9564H74.6854C78.1076 37.9564 80.0201 39.659 80.0201 42.7636C80.0201 45.8682 78.007 47.5707 74.6854 47.5707H69.552V52.7785H66.0291V37.9564H65.9285ZM69.552 41.061V44.4661H74.3834C75.7926 44.4661 76.3965 43.7651 76.3965 42.7636C76.3965 41.6619 75.7926 41.061 74.3834 41.061H69.552Z" fill="black"/>
<path d="M90.5888 50.1746H83.543L82.4358 52.7785H78.8123L85.3548 37.9564H88.9783L95.5209 52.7785H91.696L90.5888 50.1746ZM89.3809 47.2703L87.1666 42.0625L84.9522 47.2703H89.3809Z" fill="black"/>
<path d="M97.3325 37.9564H105.989C109.21 37.9564 111.021 39.5588 111.021 41.9624C111.021 43.4646 110.015 44.4661 108.908 44.9668C110.216 45.3674 111.424 46.5692 111.424 48.5722C111.424 51.1761 109.612 52.7785 106.19 52.7785H97.4331V37.9564H97.3325ZM100.855 40.7606V43.6649H105.385C106.593 43.6649 107.297 43.1642 107.297 42.1627C107.297 41.1612 106.593 40.6604 105.385 40.6604H100.855V40.7606ZM100.855 46.5692V49.8742H105.485C106.995 49.8742 107.7 49.2733 107.7 48.1716C107.7 47.07 106.895 46.5692 105.485 46.5692H100.855Z" fill="black"/>
<path d="M113.739 37.9564H117.363V47.9713L124.811 37.9564H128.334V52.7785H124.811V42.7636L117.363 52.7785H113.739V37.9564Z" fill="black"/>
<path d="M141.923 50.1746H134.877L133.77 52.7785H130.146L136.689 37.9564H140.312L146.855 52.7785H143.03L141.923 50.1746ZM140.614 47.2703L138.4 42.0625L136.185 47.2703H140.614Z" fill="black"/>
<path d="M148.566 37.9564H153.8L157.524 47.4706L161.349 37.9564H166.381V52.7785H162.859V41.5618L158.53 52.7785H156.115L151.787 41.6619V52.7785H148.566V37.9564Z" fill="black"/>
<path d="M168.395 37.9564H179.869V40.8607H171.917V43.5648H177.252V46.5692H171.917V49.6739H180.674V52.7785H168.395V37.9564Z" fill="black"/>
<path d="M197.886 37.9564V49.6739H200V56.1835H196.779V52.7785H185.707V56.1835H182.486V49.6739H183.996C184.6 48.7725 185.002 47.3704 185.304 44.9668L186.11 37.9564H197.886ZM194.363 41.061H189.23L188.727 45.1671C188.425 47.4706 188.123 48.7725 187.619 49.6739H194.363V41.061Z" fill="black"/>
<path d="M0.70459 60.4899H1.81176L3.62356 64.7964L5.53598 60.4899H6.64318V65.7979H5.93859V61.0908L3.92551 65.7979H3.42224L1.40915 61.0908V65.7979H0.70459V60.4899Z" fill="black"/>
<path d="M8.15308 60.4899H8.9583V62.6932H12.1792V60.4899H12.8838V65.7979H12.1792V63.3943H8.9583V65.7979H8.15308V60.4899Z" fill="black"/>
<path d="M14.1924 63.0942C14.1924 61.592 15.4002 60.3902 16.91 60.3902C18.5205 60.3902 19.6277 61.592 19.6277 63.0942C19.6277 64.5964 18.4198 65.7982 16.91 65.7982C15.2996 65.7982 14.1924 64.6966 14.1924 63.0942ZM18.9231 63.0942C18.9231 61.9925 18.1179 60.9911 16.91 60.9911C15.7022 60.9911 14.8969 61.8924 14.8969 63.0942C14.8969 64.296 15.7022 65.1973 16.91 65.1973C18.1179 65.1973 18.9231 64.1958 18.9231 63.0942Z" fill="black"/>
<path d="M20.936 60.4899H25.2642V61.0908H21.6406V65.7979H20.936V60.4899Z" fill="black"/>
<path d="M25.8682 63.0942C25.8682 61.592 27.076 60.3902 28.5858 60.3902C30.1963 60.3902 31.3035 61.592 31.3035 63.0942C31.3035 64.5964 30.0956 65.7982 28.5858 65.7982C27.076 65.7982 25.8682 64.6966 25.8682 63.0942ZM30.6996 63.0942C30.6996 61.9925 29.8943 60.9911 28.6865 60.9911C27.4786 60.9911 26.6734 61.8924 26.6734 63.0942C26.6734 64.296 27.4786 65.1973 28.6865 65.1973C29.8943 65.1973 30.6996 64.1958 30.6996 63.0942Z" fill="black"/>
<path d="M32.7126 60.4899H37.3427V65.7979H36.6382V61.0908H33.4172V65.7979H32.7126V60.4899Z" fill="black"/>
<path d="M38.8525 60.4899H41.6708C42.8787 60.4899 43.4826 61.0908 43.4826 61.9922C43.4826 62.8935 42.8787 63.5946 41.6708 63.5946H39.6578V65.7979H38.9532V60.4899H38.8525ZM39.6578 61.0908V62.7934H41.7715C42.4761 62.7934 42.778 62.3928 42.778 61.8921C42.778 61.2912 42.4761 60.9907 41.7715 60.9907H39.6578V61.0908Z" fill="black"/>
<path d="M44.3887 63.0942C44.3887 61.592 45.5965 60.3902 47.1063 60.3902C48.7168 60.3902 49.824 61.592 49.824 63.0942C49.824 64.5964 48.6161 65.7982 47.1063 65.7982C45.4958 65.7982 44.3887 64.6966 44.3887 63.0942ZM49.1194 63.0942C49.1194 61.9925 48.3142 60.9911 47.1063 60.9911C45.8985 60.9911 45.0932 61.8924 45.0932 63.0942C45.0932 64.296 45.8985 65.1973 47.1063 65.1973C48.3142 65.1973 49.1194 64.1958 49.1194 63.0942Z" fill="black"/>
<path d="M50.7297 62.9939C50.7297 61.8923 51.4343 61.1913 52.7428 61.1913H54.0513V60.2899H54.7559V61.1913H56.0644C57.4736 61.1913 58.0775 61.8923 58.0775 62.9939C58.0775 64.0956 57.3729 64.7966 56.0644 64.7966H54.7559V65.7981H54.0513V64.7966H52.7428C51.4343 64.7966 50.7297 64.0956 50.7297 62.9939ZM54.0513 61.8923H52.7428C51.8369 61.8923 51.4343 62.2929 51.4343 62.9939C51.4343 63.695 51.8369 64.0956 52.7428 64.0956H54.0513V61.8923ZM54.8566 61.8923V64.0956H56.1651C57.0709 64.0956 57.4736 63.5948 57.4736 62.9939C57.4736 62.2929 57.0709 61.8923 56.1651 61.8923H54.8566Z" fill="black"/>
<path d="M59.386 60.4899H60.0906V64.7964L63.4122 60.4899H64.1167V65.7979H63.4122V61.3913L60.0906 65.7979H59.386V60.4899Z" fill="black"/>
<path d="M65.4252 65.7979H65.2239V65.0968H65.3245C65.9285 65.0968 66.1298 64.6962 66.2304 63.4944L66.5324 60.4899H70.4579V65.7979H69.7533V61.191H67.237L67.0357 63.5946C66.8344 65.0968 66.5324 65.7979 65.4252 65.7979Z" fill="black"/>
<path d="M76.5979 64.0957C76.5979 65.0972 75.994 65.6981 74.6854 65.6981H71.9678V60.3902H72.6724V62.3932H74.5848C75.9939 62.4933 76.5979 63.0942 76.5979 64.0957ZM72.773 63.0942V65.0972H74.7861C75.4907 65.0972 75.8933 64.6966 75.8933 64.0957C75.8933 63.4948 75.4907 63.0942 74.7861 63.0942H72.773Z" fill="black"/>
<path d="M77.8057 60.4899H78.5103V62.6932H81.8318V60.4899H82.5364V65.7979H81.8318V63.3943H78.5103V65.7979H77.8057V60.4899Z" fill="black"/>
<path d="M88.6765 64.0957C88.6765 65.0972 88.0726 65.6981 86.7641 65.6981H84.0464V60.3902H84.751V62.3932H86.6634C87.9719 62.4933 88.6765 63.0942 88.6765 64.0957ZM84.8516 63.0942V65.0972H86.8647C87.5693 65.0972 87.9719 64.6966 87.9719 64.0957C87.9719 63.4948 87.5693 63.0942 86.8647 63.0942H84.8516ZM89.5824 60.4903H90.287V65.7982H89.5824V60.4903Z" fill="black"/>
<path d="M91.8975 60.4902H92.6021V64.7966L95.9236 60.4902H96.6282V65.7981H95.9236V61.4917L92.6021 65.7981H91.8975V60.4902ZM94.8165 58.8879L95.4204 58.7877V58.8879C95.4204 59.4888 95.0178 59.9895 94.3132 59.9895C93.6086 59.9895 93.206 59.4888 93.206 58.8879V58.7877H93.8099V58.8879C93.8099 59.1883 94.0112 59.4887 94.3132 59.4887C94.6151 59.4887 94.8165 59.1883 94.8165 58.8879Z" fill="black"/>
<path d="M100.151 60.4899H101.258L103.07 64.7964L104.982 60.4899H106.089V65.7979H105.385V61.0908L103.372 65.7979H102.869L100.855 61.0908V65.7979H100.151V60.4899Z" fill="black"/>
<path d="M107.599 60.4899H111.827V61.0908H108.304V62.5931H110.418V63.2941H108.304V65.0968H112.129V65.7979H107.599V60.4899Z" fill="black"/>
<path d="M117.665 60.4903V65.0972H118.47V67H117.866V65.7982H113.135V67H112.431V65.0972H113.035C113.236 64.7967 113.437 64.1958 113.437 63.3947L113.739 60.3902H117.665V60.4903ZM116.96 61.0912H114.444L114.242 63.3947C114.142 64.0957 114.041 64.6966 113.84 64.997H116.96V61.0912Z" fill="black"/>
<path d="M119.376 60.4899H120.081V64.7964L123.402 60.4899H124.207V65.7979H123.402V61.3913L120.081 65.7979H119.376V60.4899Z" fill="black"/>
<path d="M129.643 60.4899H130.448V65.0968H131.253V66.9996H130.548V65.7979H125.717V60.4899H126.522V65.0968H129.643V60.4899Z" fill="black"/>
<path d="M132.159 60.4899H132.864V64.7964L136.185 60.4899H136.89V65.7979H136.185V61.3913L132.864 65.7979H132.159V60.4899Z" fill="black"/>
<path d="M138.5 60.4899H139.205V62.6932H142.526V60.4899H143.231V65.7979H142.526V63.3943H139.205V65.7979H138.5V60.4899Z" fill="black"/>
<path d="M144.54 63.0942C144.54 61.592 145.647 60.3902 147.157 60.3902C148.666 60.3902 149.472 61.3916 149.572 61.9925H148.767C148.566 61.5919 148.062 60.9911 147.056 60.9911C145.949 60.9911 145.143 61.8924 145.143 63.0942C145.143 64.296 145.848 65.1973 147.056 65.1973C148.163 65.1973 148.566 64.5964 148.767 64.1958H149.472C149.27 64.7967 148.666 65.7982 147.056 65.7982C145.647 65.7982 144.54 64.5964 144.54 63.0942Z" fill="black"/>
<path d="M150.78 60.4899H151.485V62.8935L154.605 60.4899H155.611L152.391 63.0938L155.712 65.7979H154.706L151.485 63.2941V65.7979H150.78V60.4899Z" fill="black"/>
<path d="M156.618 60.4899H157.323V64.7964L160.644 60.4899H161.349V65.7979H160.644V61.3913L157.323 65.7979H156.618V60.4899Z" fill="black"/>
<path d="M162.959 60.4902H163.664V64.7966L166.985 60.4902H167.69V65.7981H166.985V61.4917L163.664 65.7981H162.959V60.4902ZM165.878 58.8879L166.482 58.7877V58.8879C166.482 59.4888 166.079 59.9895 165.375 59.9895C164.67 59.9895 164.268 59.4888 164.268 58.8879V58.7877H164.871V58.8879C164.871 59.1883 165.073 59.4887 165.375 59.4887C165.677 59.4887 165.878 59.1883 165.878 58.8879Z" fill="black"/>
<path d="M175.138 60.4899H175.843V65.0968H176.749V66.9996H176.044V65.7979H171.213V60.4899H171.917V65.0968H175.138V60.4899Z" fill="black"/>
<path d="M177.554 60.4899H181.781V61.0908H178.359V62.5931H180.372V63.2941H178.359V65.0968H182.083V65.7979H177.554V60.4899Z" fill="black"/>
<path d="M183.191 60.4899H183.895V62.6932H187.116V60.4899H187.921V65.7979H187.116V63.3943H183.895V65.7979H183.191V60.4899Z" fill="black"/>
<path d="M191.142 61.0908H188.928V60.4899H194.061V61.0908H191.847V65.7979H191.142V61.0908Z" fill="black"/>
<path d="M195.168 60.4899H197.987C199.195 60.4899 199.799 61.0908 199.799 61.9922C199.799 62.8935 199.195 63.5946 197.987 63.5946H195.974V65.7979H195.269V60.4899H195.168ZM195.873 61.0908V62.7934H197.987C198.691 62.7934 198.993 62.3928 198.993 61.8921C198.993 61.2912 198.691 60.9907 197.987 60.9907H195.873V61.0908Z" fill="black"/>
<path d="M127.831 18.3273C123.1 7.61135 112.33 0 99.849 0C87.2672 0 76.4972 7.5112 71.8671 18.3273L0 25.7383H69.7534H75.4907C76.4972 23.0343 77.9064 20.5306 79.6175 18.3273C84.3482 12.4185 91.696 8.61283 99.9496 8.61283C108.203 8.61283 115.551 12.4185 120.282 18.3273C122.094 20.5306 123.503 23.0343 124.409 25.7383H130.045H199.799L127.831 18.3273Z" fill="#1D3E90"/>
</svg>
